<svg xmlns="http://www.w3.org/2000/svg" width="704" height="1890" viewBox="0 0 704 1890" font-family="ui-sans-serif, system-ui, sans-serif">
<rect x="0" y="0" width="704" height="1890" fill="#0e1116"/>
<path d="M 258.5 87 C 347.1 87, 391.4 207, 480 207" fill="none" stroke="#5d6b7d" stroke-width="1.5"/>
<path d="M 269.5 81.5 L 269.5 92.5" fill="none" stroke="#5d6b7d" stroke-width="1.5"/>
<path d="M 469 201.5 L 469 212.5" fill="none" stroke="#5d6b7d" stroke-width="1.5"/>
<path d="M 258.5 139 C 339.9 139, 380.6 467, 462 467" fill="none" stroke="#5d6b7d" stroke-width="1.5"/>
<path d="M 269.5 139 L 258.5 133.5 M 269.5 139 L 258.5 144.5 M 269.5 139 L 258.5 139" fill="none" stroke="#5d6b7d" stroke-width="1.5"/>
<path d="M 451 461.5 L 451 472.5" fill="none" stroke="#5d6b7d" stroke-width="1.5"/><circle cx="445.8" cy="467" r="3.2" fill="none" stroke="#5d6b7d" stroke-width="1.5"/>
<path d="M 237 837 C 327.2 837, 372.3 1121, 462.5 1121" fill="none" stroke="#5d6b7d" stroke-width="1.5"/>
<path d="M 248 837 L 237 831.5 M 248 837 L 237 842.5 M 248 837 L 237 837" fill="none" stroke="#5d6b7d" stroke-width="1.5"/>
<path d="M 451.5 1115.5 L 451.5 1126.5" fill="none" stroke="#5d6b7d" stroke-width="1.5"/><circle cx="446.3" cy="1121" r="3.2" fill="none" stroke="#5d6b7d" stroke-width="1.5"/>
<path d="M 237 889 C 327 889, 372 467, 462 467" fill="none" stroke="#5d6b7d" stroke-width="1.5"/>
<path d="M 248 889 L 237 883.5 M 248 889 L 237 894.5 M 248 889 L 237 889" fill="none" stroke="#5d6b7d" stroke-width="1.5"/>
<path d="M 451 461.5 L 451 472.5" fill="none" stroke="#5d6b7d" stroke-width="1.5"/><circle cx="445.8" cy="467" r="3.2" fill="none" stroke="#5d6b7d" stroke-width="1.5"/>
<path d="M 237 915 C 334.2 915, 382.8 207, 480 207" fill="none" stroke="#5d6b7d" stroke-width="1.5"/>
<path d="M 248 915 L 237 909.5 M 248 915 L 237 920.5 M 248 915 L 237 915" fill="none" stroke="#5d6b7d" stroke-width="1.5"/>
<path d="M 469 201.5 L 469 212.5" fill="none" stroke="#5d6b7d" stroke-width="1.5"/><circle cx="463.8" cy="207" r="3.2" fill="none" stroke="#5d6b7d" stroke-width="1.5"/>
<path d="M 237 1087 C 327.2 1087, 372.3 1121, 462.5 1121" fill="none" stroke="#5d6b7d" stroke-width="1.5"/>
<path d="M 248 1087 L 237 1081.5 M 248 1087 L 237 1092.5 M 248 1087 L 237 1087" fill="none" stroke="#5d6b7d" stroke-width="1.5"/>
<path d="M 451.5 1115.5 L 451.5 1126.5" fill="none" stroke="#5d6b7d" stroke-width="1.5"/><circle cx="446.3" cy="1121" r="3.2" fill="none" stroke="#5d6b7d" stroke-width="1.5"/>
<path d="M 237 1139 C 327 1139, 372 467, 462 467" fill="none" stroke="#5d6b7d" stroke-width="1.5"/>
<path d="M 248 1139 L 237 1133.5 M 248 1139 L 237 1144.5 M 248 1139 L 237 1139" fill="none" stroke="#5d6b7d" stroke-width="1.5"/>
<path d="M 451 461.5 L 451 472.5" fill="none" stroke="#5d6b7d" stroke-width="1.5"/><circle cx="445.8" cy="467" r="3.2" fill="none" stroke="#5d6b7d" stroke-width="1.5"/>
<path d="M 238 1759 C 327.8 1759, 372.7 1121, 462.5 1121" fill="none" stroke="#5d6b7d" stroke-width="1.5"/>
<path d="M 249 1759 L 238 1753.5 M 249 1759 L 238 1764.5 M 249 1759 L 238 1759" fill="none" stroke="#5d6b7d" stroke-width="1.5"/>
<path d="M 451.5 1115.5 L 451.5 1126.5" fill="none" stroke="#5d6b7d" stroke-width="1.5"/><circle cx="446.3" cy="1121" r="3.2" fill="none" stroke="#5d6b7d" stroke-width="1.5"/>
<path d="M 238 1811 C 327.6 1811, 372.4 1445.5, 462 1445.5" fill="none" stroke="#5d6b7d" stroke-width="1.5"/>
<path d="M 249 1811 L 238 1805.5 M 249 1811 L 238 1816.5 M 249 1811 L 238 1811" fill="none" stroke="#5d6b7d" stroke-width="1.5"/>
<path d="M 451 1440 L 451 1451" fill="none" stroke="#5d6b7d" stroke-width="1.5"/><circle cx="445.8" cy="1445.5" r="3.2" fill="none" stroke="#5d6b7d" stroke-width="1.5"/>
<path d="M 252 587 C 336.2 587, 378.3 1121, 462.5 1121" fill="none" stroke="#5d6b7d" stroke-width="1.5"/>
<path d="M 263 581.5 L 263 592.5" fill="none" stroke="#5d6b7d" stroke-width="1.5"/>
<path d="M 451.5 1115.5 L 451.5 1126.5" fill="none" stroke="#5d6b7d" stroke-width="1.5"/>
<path d="M 252 613 C 336 613, 378 467, 462 467" fill="none" stroke="#5d6b7d" stroke-width="1.5"/>
<path d="M 263 607.5 L 263 618.5" fill="none" stroke="#5d6b7d" stroke-width="1.5"/>
<path d="M 451 461.5 L 451 472.5" fill="none" stroke="#5d6b7d" stroke-width="1.5"/>
<path d="M 252 1483 C 336.2 1483, 378.3 1121, 462.5 1121" fill="none" stroke="#5d6b7d" stroke-width="1.5"/>
<path d="M 263 1477.5 L 263 1488.5" fill="none" stroke="#5d6b7d" stroke-width="1.5"/>
<path d="M 451.5 1115.5 L 451.5 1126.5" fill="none" stroke="#5d6b7d" stroke-width="1.5"/>
<path d="M 252 1509 C 336 1509, 378 1445.5, 462 1445.5" fill="none" stroke="#5d6b7d" stroke-width="1.5"/>
<path d="M 263 1503.5 L 263 1514.5" fill="none" stroke="#5d6b7d" stroke-width="1.5"/>
<path d="M 451 1440 L 451 1451" fill="none" stroke="#5d6b7d" stroke-width="1.5"/>
<path d="M 262 1285 C 342.2 1285, 382.3 1121, 462.5 1121" fill="none" stroke="#5d6b7d" stroke-width="1.5"/>
<path d="M 273 1279.5 L 273 1290.5" fill="none" stroke="#5d6b7d" stroke-width="1.5"/>
<path d="M 451.5 1115.5 L 451.5 1126.5" fill="none" stroke="#5d6b7d" stroke-width="1.5"/>
<path d="M 262 1311 C 342 1311, 382 1445.5, 462 1445.5" fill="none" stroke="#5d6b7d" stroke-width="1.5"/>
<path d="M 273 1305.5 L 273 1316.5" fill="none" stroke="#5d6b7d" stroke-width="1.5"/>
<path d="M 451 1440 L 451 1451" fill="none" stroke="#5d6b7d" stroke-width="1.5"/>
<path d="M 241.5 259 C 329.9 259, 374.1 1121, 462.5 1121" fill="none" stroke="#5d6b7d" stroke-width="1.5"/>
<path d="M 252.5 253.5 L 252.5 264.5" fill="none" stroke="#5d6b7d" stroke-width="1.5"/>
<path d="M 451.5 1115.5 L 451.5 1126.5" fill="none" stroke="#5d6b7d" stroke-width="1.5"/>
<path d="M 241.5 311 C 329.7 311, 373.8 467, 462 467" fill="none" stroke="#5d6b7d" stroke-width="1.5"/>
<path d="M 252.5 305.5 L 252.5 316.5" fill="none" stroke="#5d6b7d" stroke-width="1.5"/>
<path d="M 451 461.5 L 451 472.5" fill="none" stroke="#5d6b7d" stroke-width="1.5"/>
<g transform="translate(462 420)"><rect x="0" y="0" width="202" height="164" rx="10" fill="#1b212b" stroke="#2b333f"/><path d="M0 34 V10 a10 10 0 0 1 10 -10 H192 a10 10 0 0 1 10 10 V34 Z" fill="#222c3a"/><line x1="0" y1="34" x2="202" y2="34" stroke="#2b333f"/><text x="12" y="17" dominant-baseline="middle" font-weight="600" font-size="14" fill="#e8edf4">machines</text><text x="10" y="47" dominant-baseline="middle" font-size="9" font-weight="700" fill="#f5c451">PK</text><text x="38" y="47" dominant-baseline="middle" font-size="13" font-family="ui-monospace, Menlo, monospace" fill="#c4ccd6">machine_id</text><text x="190" y="47" dominant-baseline="middle" text-anchor="end" font-size="12" font-family="ui-monospace, Menlo, monospace" fill="#6f7b8a">text</text><rect x="1" y="60" width="200" height="26" fill="#1e2530"/><text x="38" y="73" dominant-baseline="middle" font-size="13" font-family="ui-monospace, Menlo, monospace" fill="#c4ccd6">name</text><text x="190" y="73" dominant-baseline="middle" text-anchor="end" font-size="12" font-family="ui-monospace, Menlo, monospace" fill="#6f7b8a">text</text><text x="38" y="99" dominant-baseline="middle" font-size="13" font-family="ui-monospace, Menlo, monospace" fill="#c4ccd6">mtbf_target</text><text x="190" y="99" dominant-baseline="middle" text-anchor="end" font-size="12" font-family="ui-monospace, Menlo, monospace" fill="#6f7b8a">real</text><rect x="1" y="112" width="200" height="26" fill="#1e2530"/><text x="38" y="125" dominant-baseline="middle" font-size="13" font-family="ui-monospace, Menlo, monospace" fill="#c4ccd6">mttr_target</text><text x="190" y="125" dominant-baseline="middle" text-anchor="end" font-size="12" font-family="ui-monospace, Menlo, monospace" fill="#6f7b8a">real</text><text x="38" y="151" dominant-baseline="middle" font-size="13" font-family="ui-monospace, Menlo, monospace" fill="#c4ccd6">cycle_time_base</text><text x="190" y="151" dominant-baseline="middle" text-anchor="end" font-size="12" font-family="ui-monospace, Menlo, monospace" fill="#6f7b8a">real</text></g>
<g transform="translate(480 160)"><rect x="0" y="0" width="166" height="86" rx="10" fill="#1b212b" stroke="#2b333f"/><path d="M0 34 V10 a10 10 0 0 1 10 -10 H156 a10 10 0 0 1 10 10 V34 Z" fill="#222c3a"/><line x1="0" y1="34" x2="166" y2="34" stroke="#2b333f"/><text x="12" y="17" dominant-baseline="middle" font-weight="600" font-size="14" fill="#e8edf4">products</text><text x="10" y="47" dominant-baseline="middle" font-size="9" font-weight="700" fill="#f5c451">PK</text><text x="38" y="47" dominant-baseline="middle" font-size="13" font-family="ui-monospace, Menlo, monospace" fill="#c4ccd6">product_id</text><text x="154" y="47" dominant-baseline="middle" text-anchor="end" font-size="12" font-family="ui-monospace, Menlo, monospace" fill="#6f7b8a">text</text><rect x="1" y="60" width="164" height="26" fill="#1e2530"/><text x="38" y="73" dominant-baseline="middle" font-size="13" font-family="ui-monospace, Menlo, monospace" fill="#c4ccd6">name</text><text x="154" y="73" dominant-baseline="middle" text-anchor="end" font-size="12" font-family="ui-monospace, Menlo, monospace" fill="#6f7b8a">text</text></g>
<g transform="translate(43.5 40)"><rect x="0" y="0" width="215" height="112" rx="10" fill="#1b212b" stroke="#2b333f"/><path d="M0 34 V10 a10 10 0 0 1 10 -10 H205 a10 10 0 0 1 10 10 V34 Z" fill="#222c3a"/><line x1="0" y1="34" x2="215" y2="34" stroke="#2b333f"/><text x="12" y="17" dominant-baseline="middle" font-weight="600" font-size="14" fill="#e8edf4">product_routes</text><text x="10" y="47" dominant-baseline="middle" font-size="9" font-weight="700" fill="#f5c451">PK</text><text x="38" y="47" dominant-baseline="middle" font-size="13" font-family="ui-monospace, Menlo, monospace" fill="#c4ccd6">product_id</text><text x="203" y="47" dominant-baseline="middle" text-anchor="end" font-size="12" font-family="ui-monospace, Menlo, monospace" fill="#6f7b8a">text</text><rect x="1" y="60" width="213" height="26" fill="#1e2530"/><text x="10" y="73" dominant-baseline="middle" font-size="9" font-weight="700" fill="#f5c451">PK</text><text x="38" y="73" dominant-baseline="middle" font-size="13" font-family="ui-monospace, Menlo, monospace" fill="#c4ccd6">sequence_order</text><text x="203" y="73" dominant-baseline="middle" text-anchor="end" font-size="12" font-family="ui-monospace, Menlo, monospace" fill="#6f7b8a">integer</text><text x="10" y="99" dominant-baseline="middle" font-size="9" font-weight="700" fill="#5aa7ff">FK</text><text x="38" y="99" dominant-baseline="middle" font-size="13" font-family="ui-monospace, Menlo, monospace" fill="#c4ccd6">machine_id</text><text x="203" y="99" dominant-baseline="middle" text-anchor="end" font-size="12" font-family="ui-monospace, Menlo, monospace" fill="#6f7b8a">text</text></g>
<g transform="translate(462 1398.5)"><rect x="0" y="0" width="202" height="190" rx="10" fill="#1b212b" stroke="#2b333f"/><path d="M0 34 V10 a10 10 0 0 1 10 -10 H192 a10 10 0 0 1 10 10 V34 Z" fill="#222c3a"/><line x1="0" y1="34" x2="202" y2="34" stroke="#2b333f"/><text x="12" y="17" dominant-baseline="middle" font-weight="600" font-size="14" fill="#e8edf4">materials</text><text x="10" y="47" dominant-baseline="middle" font-size="9" font-weight="700" fill="#f5c451">PK</text><text x="38" y="47" dominant-baseline="middle" font-size="13" font-family="ui-monospace, Menlo, monospace" fill="#c4ccd6">material_id</text><text x="190" y="47" dominant-baseline="middle" text-anchor="end" font-size="12" font-family="ui-monospace, Menlo, monospace" fill="#6f7b8a">text</text><rect x="1" y="60" width="200" height="26" fill="#1e2530"/><text x="38" y="73" dominant-baseline="middle" font-size="13" font-family="ui-monospace, Menlo, monospace" fill="#c4ccd6">name</text><text x="190" y="73" dominant-baseline="middle" text-anchor="end" font-size="12" font-family="ui-monospace, Menlo, monospace" fill="#6f7b8a">text</text><text x="38" y="99" dominant-baseline="middle" font-size="13" font-family="ui-monospace, Menlo, monospace" fill="#c4ccd6">min_level</text><text x="190" y="99" dominant-baseline="middle" text-anchor="end" font-size="12" font-family="ui-monospace, Menlo, monospace" fill="#6f7b8a">integer</text><rect x="1" y="112" width="200" height="26" fill="#1e2530"/><text x="38" y="125" dominant-baseline="middle" font-size="13" font-family="ui-monospace, Menlo, monospace" fill="#c4ccd6">batch_size</text><text x="190" y="125" dominant-baseline="middle" text-anchor="end" font-size="12" font-family="ui-monospace, Menlo, monospace" fill="#6f7b8a">integer</text><text x="38" y="151" dominant-baseline="middle" font-size="13" font-family="ui-monospace, Menlo, monospace" fill="#c4ccd6">unit_time</text><text x="190" y="151" dominant-baseline="middle" text-anchor="end" font-size="12" font-family="ui-monospace, Menlo, monospace" fill="#6f7b8a">real</text><rect x="1" y="164" width="200" height="26" fill="#1e2530"/><text x="38" y="177" dominant-baseline="middle" font-size="13" font-family="ui-monospace, Menlo, monospace" fill="#c4ccd6">changeover_time</text><text x="190" y="177" dominant-baseline="middle" text-anchor="end" font-size="12" font-family="ui-monospace, Menlo, monospace" fill="#6f7b8a">real</text></g>
<g transform="translate(462.5 1074)"><rect x="0" y="0" width="201" height="216" rx="10" fill="#1b212b" stroke="#2b333f"/><path d="M0 34 V10 a10 10 0 0 1 10 -10 H191 a10 10 0 0 1 10 10 V34 Z" fill="#222c3a"/><line x1="0" y1="34" x2="201" y2="34" stroke="#2b333f"/><text x="12" y="17" dominant-baseline="middle" font-weight="600" font-size="14" fill="#e8edf4">simulation_runs</text><text x="10" y="47" dominant-baseline="middle" font-size="9" font-weight="700" fill="#f5c451">PK</text><text x="38" y="47" dominant-baseline="middle" font-size="13" font-family="ui-monospace, Menlo, monospace" fill="#c4ccd6">run_id</text><text x="189" y="47" dominant-baseline="middle" text-anchor="end" font-size="12" font-family="ui-monospace, Menlo, monospace" fill="#6f7b8a">integer</text><rect x="1" y="60" width="199" height="26" fill="#1e2530"/><text x="38" y="73" dominant-baseline="middle" font-size="13" font-family="ui-monospace, Menlo, monospace" fill="#c4ccd6">started_at</text><text x="189" y="73" dominant-baseline="middle" text-anchor="end" font-size="12" font-family="ui-monospace, Menlo, monospace" fill="#6f7b8a">text</text><text x="38" y="99" dominant-baseline="middle" font-size="13" font-family="ui-monospace, Menlo, monospace" fill="#c4ccd6">finished_at</text><text x="189" y="99" dominant-baseline="middle" text-anchor="end" font-size="12" font-family="ui-monospace, Menlo, monospace" fill="#6f7b8a">text</text><rect x="1" y="112" width="199" height="26" fill="#1e2530"/><text x="38" y="125" dominant-baseline="middle" font-size="13" font-family="ui-monospace, Menlo, monospace" fill="#c4ccd6">sim_duration</text><text x="189" y="125" dominant-baseline="middle" text-anchor="end" font-size="12" font-family="ui-monospace, Menlo, monospace" fill="#6f7b8a">integer</text><text x="38" y="151" dominant-baseline="middle" font-size="13" font-family="ui-monospace, Menlo, monospace" fill="#c4ccd6">random_seed</text><text x="189" y="151" dominant-baseline="middle" text-anchor="end" font-size="12" font-family="ui-monospace, Menlo, monospace" fill="#6f7b8a">integer</text><rect x="1" y="164" width="199" height="26" fill="#1e2530"/><text x="38" y="177" dominant-baseline="middle" font-size="13" font-family="ui-monospace, Menlo, monospace" fill="#c4ccd6">status</text><text x="189" y="177" dominant-baseline="middle" text-anchor="end" font-size="12" font-family="ui-monospace, Menlo, monospace" fill="#6f7b8a">text</text><text x="38" y="203" dominant-baseline="middle" font-size="13" font-family="ui-monospace, Menlo, monospace" fill="#c4ccd6">notes</text><text x="189" y="203" dominant-baseline="middle" text-anchor="end" font-size="12" font-family="ui-monospace, Menlo, monospace" fill="#6f7b8a">text</text></g>
<g transform="translate(65 764)"><rect x="0" y="0" width="172" height="190" rx="10" fill="#1b212b" stroke="#2b333f"/><path d="M0 34 V10 a10 10 0 0 1 10 -10 H162 a10 10 0 0 1 10 10 V34 Z" fill="#222c3a"/><line x1="0" y1="34" x2="172" y2="34" stroke="#2b333f"/><text x="12" y="17" dominant-baseline="middle" font-weight="600" font-size="14" fill="#e8edf4">production_events</text><text x="10" y="47" dominant-baseline="middle" font-size="9" font-weight="700" fill="#f5c451">PK</text><text x="38" y="47" dominant-baseline="middle" font-size="13" font-family="ui-monospace, Menlo, monospace" fill="#c4ccd6">event_id</text><text x="160" y="47" dominant-baseline="middle" text-anchor="end" font-size="12" font-family="ui-monospace, Menlo, monospace" fill="#6f7b8a">integer</text><rect x="1" y="60" width="170" height="26" fill="#1e2530"/><text x="10" y="73" dominant-baseline="middle" font-size="9" font-weight="700" fill="#5aa7ff">FK</text><text x="38" y="73" dominant-baseline="middle" font-size="13" font-family="ui-monospace, Menlo, monospace" fill="#c4ccd6">run_id</text><text x="160" y="73" dominant-baseline="middle" text-anchor="end" font-size="12" font-family="ui-monospace, Menlo, monospace" fill="#6f7b8a">integer</text><text x="38" y="99" dominant-baseline="middle" font-size="13" font-family="ui-monospace, Menlo, monospace" fill="#c4ccd6">sim_time</text><text x="160" y="99" dominant-baseline="middle" text-anchor="end" font-size="12" font-family="ui-monospace, Menlo, monospace" fill="#6f7b8a">real</text><rect x="1" y="112" width="170" height="26" fill="#1e2530"/><text x="10" y="125" dominant-baseline="middle" font-size="9" font-weight="700" fill="#5aa7ff">FK</text><text x="38" y="125" dominant-baseline="middle" font-size="13" font-family="ui-monospace, Menlo, monospace" fill="#c4ccd6">machine_id</text><text x="160" y="125" dominant-baseline="middle" text-anchor="end" font-size="12" font-family="ui-monospace, Menlo, monospace" fill="#6f7b8a">text</text><text x="10" y="151" dominant-baseline="middle" font-size="9" font-weight="700" fill="#5aa7ff">FK</text><text x="38" y="151" dominant-baseline="middle" font-size="13" font-family="ui-monospace, Menlo, monospace" fill="#c4ccd6">product_id</text><text x="160" y="151" dominant-baseline="middle" text-anchor="end" font-size="12" font-family="ui-monospace, Menlo, monospace" fill="#6f7b8a">text</text><rect x="1" y="164" width="170" height="26" fill="#1e2530"/><text x="38" y="177" dominant-baseline="middle" font-size="13" font-family="ui-monospace, Menlo, monospace" fill="#c4ccd6">is_good</text><text x="160" y="177" dominant-baseline="middle" text-anchor="end" font-size="12" font-family="ui-monospace, Menlo, monospace" fill="#6f7b8a">integer</text></g>
<g transform="translate(65 1014)"><rect x="0" y="0" width="172" height="164" rx="10" fill="#1b212b" stroke="#2b333f"/><path d="M0 34 V10 a10 10 0 0 1 10 -10 H162 a10 10 0 0 1 10 10 V34 Z" fill="#222c3a"/><line x1="0" y1="34" x2="172" y2="34" stroke="#2b333f"/><text x="12" y="17" dominant-baseline="middle" font-weight="600" font-size="14" fill="#e8edf4">machine_status_log</text><text x="10" y="47" dominant-baseline="middle" font-size="9" font-weight="700" fill="#f5c451">PK</text><text x="38" y="47" dominant-baseline="middle" font-size="13" font-family="ui-monospace, Menlo, monospace" fill="#c4ccd6">log_id</text><text x="160" y="47" dominant-baseline="middle" text-anchor="end" font-size="12" font-family="ui-monospace, Menlo, monospace" fill="#6f7b8a">integer</text><rect x="1" y="60" width="170" height="26" fill="#1e2530"/><text x="10" y="73" dominant-baseline="middle" font-size="9" font-weight="700" fill="#5aa7ff">FK</text><text x="38" y="73" dominant-baseline="middle" font-size="13" font-family="ui-monospace, Menlo, monospace" fill="#c4ccd6">run_id</text><text x="160" y="73" dominant-baseline="middle" text-anchor="end" font-size="12" font-family="ui-monospace, Menlo, monospace" fill="#6f7b8a">integer</text><text x="38" y="99" dominant-baseline="middle" font-size="13" font-family="ui-monospace, Menlo, monospace" fill="#c4ccd6">sim_time</text><text x="160" y="99" dominant-baseline="middle" text-anchor="end" font-size="12" font-family="ui-monospace, Menlo, monospace" fill="#6f7b8a">real</text><rect x="1" y="112" width="170" height="26" fill="#1e2530"/><text x="10" y="125" dominant-baseline="middle" font-size="9" font-weight="700" fill="#5aa7ff">FK</text><text x="38" y="125" dominant-baseline="middle" font-size="13" font-family="ui-monospace, Menlo, monospace" fill="#c4ccd6">machine_id</text><text x="160" y="125" dominant-baseline="middle" text-anchor="end" font-size="12" font-family="ui-monospace, Menlo, monospace" fill="#6f7b8a">text</text><text x="38" y="151" dominant-baseline="middle" font-size="13" font-family="ui-monospace, Menlo, monospace" fill="#c4ccd6">status</text><text x="160" y="151" dominant-baseline="middle" text-anchor="end" font-size="12" font-family="ui-monospace, Menlo, monospace" fill="#6f7b8a">text</text></g>
<g transform="translate(64 1686)"><rect x="0" y="0" width="174" height="164" rx="10" fill="#1b212b" stroke="#2b333f"/><path d="M0 34 V10 a10 10 0 0 1 10 -10 H164 a10 10 0 0 1 10 10 V34 Z" fill="#222c3a"/><line x1="0" y1="34" x2="174" y2="34" stroke="#2b333f"/><text x="12" y="17" dominant-baseline="middle" font-weight="600" font-size="14" fill="#e8edf4">material_stock_log</text><text x="10" y="47" dominant-baseline="middle" font-size="9" font-weight="700" fill="#f5c451">PK</text><text x="38" y="47" dominant-baseline="middle" font-size="13" font-family="ui-monospace, Menlo, monospace" fill="#c4ccd6">log_id</text><text x="162" y="47" dominant-baseline="middle" text-anchor="end" font-size="12" font-family="ui-monospace, Menlo, monospace" fill="#6f7b8a">integer</text><rect x="1" y="60" width="172" height="26" fill="#1e2530"/><text x="10" y="73" dominant-baseline="middle" font-size="9" font-weight="700" fill="#5aa7ff">FK</text><text x="38" y="73" dominant-baseline="middle" font-size="13" font-family="ui-monospace, Menlo, monospace" fill="#c4ccd6">run_id</text><text x="162" y="73" dominant-baseline="middle" text-anchor="end" font-size="12" font-family="ui-monospace, Menlo, monospace" fill="#6f7b8a">integer</text><text x="38" y="99" dominant-baseline="middle" font-size="13" font-family="ui-monospace, Menlo, monospace" fill="#c4ccd6">sim_time</text><text x="162" y="99" dominant-baseline="middle" text-anchor="end" font-size="12" font-family="ui-monospace, Menlo, monospace" fill="#6f7b8a">real</text><rect x="1" y="112" width="172" height="26" fill="#1e2530"/><text x="10" y="125" dominant-baseline="middle" font-size="9" font-weight="700" fill="#5aa7ff">FK</text><text x="38" y="125" dominant-baseline="middle" font-size="13" font-family="ui-monospace, Menlo, monospace" fill="#c4ccd6">material_id</text><text x="162" y="125" dominant-baseline="middle" text-anchor="end" font-size="12" font-family="ui-monospace, Menlo, monospace" fill="#6f7b8a">text</text><text x="38" y="151" dominant-baseline="middle" font-size="13" font-family="ui-monospace, Menlo, monospace" fill="#c4ccd6">stock_level</text><text x="162" y="151" dominant-baseline="middle" text-anchor="end" font-size="12" font-family="ui-monospace, Menlo, monospace" fill="#6f7b8a">real</text></g>
<g transform="translate(50 540)"><rect x="0" y="0" width="202" height="164" rx="10" fill="#1b212b" stroke="#2b333f"/><path d="M0 34 V10 a10 10 0 0 1 10 -10 H192 a10 10 0 0 1 10 10 V34 Z" fill="#222c3a"/><line x1="0" y1="34" x2="202" y2="34" stroke="#2b333f"/><text x="12" y="17" dominant-baseline="middle" font-weight="600" font-size="14" fill="#e8edf4">run_machine_params</text><text x="10" y="47" dominant-baseline="middle" font-size="9" font-weight="700" fill="#f5c451">PK</text><text x="38" y="47" dominant-baseline="middle" font-size="13" font-family="ui-monospace, Menlo, monospace" fill="#c4ccd6">run_id</text><text x="190" y="47" dominant-baseline="middle" text-anchor="end" font-size="12" font-family="ui-monospace, Menlo, monospace" fill="#6f7b8a">integer</text><rect x="1" y="60" width="200" height="26" fill="#1e2530"/><text x="10" y="73" dominant-baseline="middle" font-size="9" font-weight="700" fill="#f5c451">PK</text><text x="38" y="73" dominant-baseline="middle" font-size="13" font-family="ui-monospace, Menlo, monospace" fill="#c4ccd6">machine_id</text><text x="190" y="73" dominant-baseline="middle" text-anchor="end" font-size="12" font-family="ui-monospace, Menlo, monospace" fill="#6f7b8a">text</text><text x="38" y="99" dominant-baseline="middle" font-size="13" font-family="ui-monospace, Menlo, monospace" fill="#c4ccd6">mtbf_target</text><text x="190" y="99" dominant-baseline="middle" text-anchor="end" font-size="12" font-family="ui-monospace, Menlo, monospace" fill="#6f7b8a">real</text><rect x="1" y="112" width="200" height="26" fill="#1e2530"/><text x="38" y="125" dominant-baseline="middle" font-size="13" font-family="ui-monospace, Menlo, monospace" fill="#c4ccd6">mttr_target</text><text x="190" y="125" dominant-baseline="middle" text-anchor="end" font-size="12" font-family="ui-monospace, Menlo, monospace" fill="#6f7b8a">real</text><text x="38" y="151" dominant-baseline="middle" font-size="13" font-family="ui-monospace, Menlo, monospace" fill="#c4ccd6">cycle_time_base</text><text x="190" y="151" dominant-baseline="middle" text-anchor="end" font-size="12" font-family="ui-monospace, Menlo, monospace" fill="#6f7b8a">real</text></g>
<g transform="translate(50 1436)"><rect x="0" y="0" width="202" height="190" rx="10" fill="#1b212b" stroke="#2b333f"/><path d="M0 34 V10 a10 10 0 0 1 10 -10 H192 a10 10 0 0 1 10 10 V34 Z" fill="#222c3a"/><line x1="0" y1="34" x2="202" y2="34" stroke="#2b333f"/><text x="12" y="17" dominant-baseline="middle" font-weight="600" font-size="14" fill="#e8edf4">run_material_params</text><text x="10" y="47" dominant-baseline="middle" font-size="9" font-weight="700" fill="#f5c451">PK</text><text x="38" y="47" dominant-baseline="middle" font-size="13" font-family="ui-monospace, Menlo, monospace" fill="#c4ccd6">run_id</text><text x="190" y="47" dominant-baseline="middle" text-anchor="end" font-size="12" font-family="ui-monospace, Menlo, monospace" fill="#6f7b8a">integer</text><rect x="1" y="60" width="200" height="26" fill="#1e2530"/><text x="10" y="73" dominant-baseline="middle" font-size="9" font-weight="700" fill="#f5c451">PK</text><text x="38" y="73" dominant-baseline="middle" font-size="13" font-family="ui-monospace, Menlo, monospace" fill="#c4ccd6">material_id</text><text x="190" y="73" dominant-baseline="middle" text-anchor="end" font-size="12" font-family="ui-monospace, Menlo, monospace" fill="#6f7b8a">text</text><text x="38" y="99" dominant-baseline="middle" font-size="13" font-family="ui-monospace, Menlo, monospace" fill="#c4ccd6">min_level</text><text x="190" y="99" dominant-baseline="middle" text-anchor="end" font-size="12" font-family="ui-monospace, Menlo, monospace" fill="#6f7b8a">real</text><rect x="1" y="112" width="200" height="26" fill="#1e2530"/><text x="38" y="125" dominant-baseline="middle" font-size="13" font-family="ui-monospace, Menlo, monospace" fill="#c4ccd6">batch_size</text><text x="190" y="125" dominant-baseline="middle" text-anchor="end" font-size="12" font-family="ui-monospace, Menlo, monospace" fill="#6f7b8a">real</text><text x="38" y="151" dominant-baseline="middle" font-size="13" font-family="ui-monospace, Menlo, monospace" fill="#c4ccd6">unit_time</text><text x="190" y="151" dominant-baseline="middle" text-anchor="end" font-size="12" font-family="ui-monospace, Menlo, monospace" fill="#6f7b8a">real</text><rect x="1" y="164" width="200" height="26" fill="#1e2530"/><text x="38" y="177" dominant-baseline="middle" font-size="13" font-family="ui-monospace, Menlo, monospace" fill="#c4ccd6">changeover_time</text><text x="190" y="177" dominant-baseline="middle" text-anchor="end" font-size="12" font-family="ui-monospace, Menlo, monospace" fill="#6f7b8a">real</text></g>
<g transform="translate(40 1238)"><rect x="0" y="0" width="222" height="138" rx="10" fill="#1b212b" stroke="#2b333f"/><path d="M0 34 V10 a10 10 0 0 1 10 -10 H212 a10 10 0 0 1 10 10 V34 Z" fill="#222c3a"/><line x1="0" y1="34" x2="222" y2="34" stroke="#2b333f"/><text x="12" y="17" dominant-baseline="middle" font-weight="600" font-size="14" fill="#e8edf4">material_recommendations</text><text x="10" y="47" dominant-baseline="middle" font-size="9" font-weight="700" fill="#f5c451">PK</text><text x="38" y="47" dominant-baseline="middle" font-size="13" font-family="ui-monospace, Menlo, monospace" fill="#c4ccd6">run_id</text><text x="210" y="47" dominant-baseline="middle" text-anchor="end" font-size="12" font-family="ui-monospace, Menlo, monospace" fill="#6f7b8a">integer</text><rect x="1" y="60" width="220" height="26" fill="#1e2530"/><text x="10" y="73" dominant-baseline="middle" font-size="9" font-weight="700" fill="#f5c451">PK</text><text x="38" y="73" dominant-baseline="middle" font-size="13" font-family="ui-monospace, Menlo, monospace" fill="#c4ccd6">material_id</text><text x="210" y="73" dominant-baseline="middle" text-anchor="end" font-size="12" font-family="ui-monospace, Menlo, monospace" fill="#6f7b8a">text</text><text x="38" y="99" dominant-baseline="middle" font-size="13" font-family="ui-monospace, Menlo, monospace" fill="#c4ccd6">min_stock_level</text><text x="210" y="99" dominant-baseline="middle" text-anchor="end" font-size="12" font-family="ui-monospace, Menlo, monospace" fill="#6f7b8a">real</text><rect x="1" y="112" width="220" height="26" fill="#1e2530"/><text x="38" y="125" dominant-baseline="middle" font-size="13" font-family="ui-monospace, Menlo, monospace" fill="#c4ccd6">safety_stock</text><text x="210" y="125" dominant-baseline="middle" text-anchor="end" font-size="12" font-family="ui-monospace, Menlo, monospace" fill="#6f7b8a">real</text></g>
<g transform="translate(60.5 212)"><rect x="0" y="0" width="181" height="268" rx="10" fill="#1b212b" stroke="#2b333f"/><path d="M0 34 V10 a10 10 0 0 1 10 -10 H171 a10 10 0 0 1 10 10 V34 Z" fill="#222c3a"/><line x1="0" y1="34" x2="181" y2="34" stroke="#2b333f"/><text x="12" y="17" dominant-baseline="middle" font-weight="600" font-size="14" fill="#e8edf4">kpi_daily</text><text x="10" y="47" dominant-baseline="middle" font-size="9" font-weight="700" fill="#f5c451">PK</text><text x="38" y="47" dominant-baseline="middle" font-size="13" font-family="ui-monospace, Menlo, monospace" fill="#c4ccd6">run_id</text><text x="169" y="47" dominant-baseline="middle" text-anchor="end" font-size="12" font-family="ui-monospace, Menlo, monospace" fill="#6f7b8a">integer</text><rect x="1" y="60" width="179" height="26" fill="#1e2530"/><text x="10" y="73" dominant-baseline="middle" font-size="9" font-weight="700" fill="#f5c451">PK</text><text x="38" y="73" dominant-baseline="middle" font-size="13" font-family="ui-monospace, Menlo, monospace" fill="#c4ccd6">sim_day</text><text x="169" y="73" dominant-baseline="middle" text-anchor="end" font-size="12" font-family="ui-monospace, Menlo, monospace" fill="#6f7b8a">integer</text><text x="10" y="99" dominant-baseline="middle" font-size="9" font-weight="700" fill="#f5c451">PK</text><text x="38" y="99" dominant-baseline="middle" font-size="13" font-family="ui-monospace, Menlo, monospace" fill="#c4ccd6">machine_id</text><text x="169" y="99" dominant-baseline="middle" text-anchor="end" font-size="12" font-family="ui-monospace, Menlo, monospace" fill="#6f7b8a">text</text><rect x="1" y="112" width="179" height="26" fill="#1e2530"/><text x="38" y="125" dominant-baseline="middle" font-size="13" font-family="ui-monospace, Menlo, monospace" fill="#c4ccd6">availability</text><text x="169" y="125" dominant-baseline="middle" text-anchor="end" font-size="12" font-family="ui-monospace, Menlo, monospace" fill="#6f7b8a">real</text><text x="38" y="151" dominant-baseline="middle" font-size="13" font-family="ui-monospace, Menlo, monospace" fill="#c4ccd6">performance</text><text x="169" y="151" dominant-baseline="middle" text-anchor="end" font-size="12" font-family="ui-monospace, Menlo, monospace" fill="#6f7b8a">real</text><rect x="1" y="164" width="179" height="26" fill="#1e2530"/><text x="38" y="177" dominant-baseline="middle" font-size="13" font-family="ui-monospace, Menlo, monospace" fill="#c4ccd6">quality</text><text x="169" y="177" dominant-baseline="middle" text-anchor="end" font-size="12" font-family="ui-monospace, Menlo, monospace" fill="#6f7b8a">real</text><text x="38" y="203" dominant-baseline="middle" font-size="13" font-family="ui-monospace, Menlo, monospace" fill="#c4ccd6">oee</text><text x="169" y="203" dominant-baseline="middle" text-anchor="end" font-size="12" font-family="ui-monospace, Menlo, monospace" fill="#6f7b8a">real</text><rect x="1" y="216" width="179" height="26" fill="#1e2530"/><text x="38" y="229" dominant-baseline="middle" font-size="13" font-family="ui-monospace, Menlo, monospace" fill="#c4ccd6">mtbf</text><text x="169" y="229" dominant-baseline="middle" text-anchor="end" font-size="12" font-family="ui-monospace, Menlo, monospace" fill="#6f7b8a">real</text><text x="38" y="255" dominant-baseline="middle" font-size="13" font-family="ui-monospace, Menlo, monospace" fill="#c4ccd6">mttr</text><text x="169" y="255" dominant-baseline="middle" text-anchor="end" font-size="12" font-family="ui-monospace, Menlo, monospace" fill="#6f7b8a">real</text></g>
</svg>